<?xml version="1.0" encoding="UTF-8"?>
<svg id="Layer_1" data-name="Layer 1" xmlns="http://www.w3.org/2000/svg" xmlns:xlink="http://www.w3.org/1999/xlink" viewBox="0 0 778.49 182.14">
  <defs>
    <style>
      .cls-1 {
        stroke: url(#New_Gradient_Swatch);
        stroke-width: 14px;
      }

      .cls-1, .cls-2 {
        fill: none;
      }

      .cls-3 {
        fill: #2e00a0;
      }

      .cls-2 {
        stroke: #000;
        stroke-miterlimit: 10;
        stroke-width: 7px;
      }
    </style>
    <linearGradient id="New_Gradient_Swatch" data-name="New Gradient Swatch" x1="6" y1="87.07" x2="92.87" y2="87.07" gradientTransform="translate(-2 3)" gradientUnits="userSpaceOnUse">
      <stop offset="0" stop-color="#00a3ff"/>
      <stop offset="1" stop-color="#a000e9"/>
    </linearGradient>
  </defs>
  <g>
    <g>
      <path class="cls-2" d="m6.66,157.61c12.07,14.08,20.11,18.1,33.18,15.08s19.1-14.08,19.1-26.14V3"/>
      <path class="cls-2" d="m88.37,35.52c-9.05-6.03-22.07-12.07-32.17-12.07-13.07,0-22.12,6.03-25.14,18.1s7.04,22.12,14.08,25.14c7.04,3.02,11.06,5.03,18.1,8.04,7.04,3.02,17.25,5.37,22.12,16.09,5.03,11.06,0,24.13-8.04,29.16-8.78,5.49-22.12,7.04-34.19,3.02s-16.09-8.04-22.12-13.07"/>
    </g>
    <g>
      <path class="cls-1" d="m6.66,157.61c12.07,14.08,20.11,18.1,33.18,15.08s19.1-14.08,19.1-26.14V3"/>
      <path class="cls-1" d="m88.37,35.52c-9.05-6.03-22.07-12.07-32.17-12.07-13.07,0-22.12,6.03-25.14,18.1s7.04,22.12,14.08,25.14c7.04,3.02,11.06,5.03,18.1,8.04,7.04,3.02,17.25,5.37,22.12,16.09,5.03,11.06,0,24.13-8.04,29.16-8.78,5.49-22.12,7.04-34.19,3.02s-16.09-8.04-22.12-13.07"/>
    </g>
  </g>
  <g>
    <path class="cls-3" d="m233.95,35.94c-8.64-4.57-19.01-6.86-31.11-6.86h-49.09v120.68h49.09c12.15,0,22.54-2.41,31.15-7.23,8.61-4.82,15.21-11.79,19.78-20.91,4.57-9.12,6.86-20.08,6.86-32.91v-.17c0-12.82-2.29-23.65-6.86-32.49-4.57-8.84-11.18-15.54-19.82-20.11Zm-4.6,52.86c0,8.03-1.16,14.72-3.47,20.07-2.31,5.35-5.76,9.38-10.33,12.08-4.57,2.71-10.18,4.06-16.81,4.06h-14.3V53.84h14.3c6.41,0,11.92,1.33,16.52,3.97,4.6,2.65,8.1,6.57,10.5,11.75,2.4,5.19,3.6,11.54,3.6,19.07v.17Z"/>
    <path class="cls-3" d="m380.71,34.52c-8.92-5.07-19.52-7.61-31.78-7.61s-22.61,2.54-31.53,7.61c-8.92,5.07-15.82,12.27-20.7,21.58-4.88,9.31-7.32,20.38-7.32,33.2v.17c0,12.83,2.43,23.91,7.28,33.24,4.85,9.34,11.74,16.55,20.66,21.62,8.92,5.07,19.46,7.61,31.61,7.61s22.93-2.54,31.82-7.61c8.89-5.07,15.75-12.28,20.57-21.62,4.82-9.34,7.23-20.42,7.23-33.24v-.17c0-12.82-2.41-23.89-7.23-33.2-4.82-9.31-11.7-16.5-20.62-21.58Zm-3.43,54.95c0,7.53-1.14,14.06-3.43,19.61-2.29,5.55-5.53,9.84-9.74,12.88-4.21,3.04-9.27,4.56-15.18,4.56s-10.65-1.51-14.89-4.52-7.51-7.29-9.83-12.84c-2.31-5.55-3.47-12.11-3.47-19.7v-.17c0-7.64,1.16-14.22,3.47-19.74,2.31-5.52,5.6-9.77,9.87-12.75,4.27-2.98,9.21-4.47,14.84-4.47s10.82,1.51,15.05,4.52c4.24,3.01,7.51,7.28,9.83,12.8s3.47,12.07,3.47,19.65v.17Z"/>
    <polygon class="cls-3" points="471.35 29.08 440.66 29.08 440.66 149.77 521.28 149.77 521.28 125.09 471.35 125.09 471.35 29.08"/>
    <polygon class="cls-3" points="583.15 29.08 552.46 29.08 552.46 149.77 633.08 149.77 633.08 125.09 583.15 125.09 583.15 29.08"/>
    <path class="cls-3" d="m744.21,149.77h32.28l-40.65-120.68h-37.63l-40.65,120.68h32.28l7.51-26.43h39.31l7.54,26.43Zm-40.55-48.59l13.03-45.83h.58l13.07,45.83h-26.69Z"/>
  </g>
</svg>